HIERARCHY
ROOT Hips
{
	OFFSET 0.000000 0.000000 0.000000
	CHANNELS 6 Xposition Yposition Zposition Zrotation Yrotation Xrotation 
	JOINT LHipJoint
	{
		OFFSET 0.000000 0.000000 0.000000
		CHANNELS 3 Zrotation Yrotation Xrotation
		JOINT LeftUpLeg
		{
			OFFSET 1.363060 -1.794630 0.839290
			CHANNELS 3 Zrotation Yrotation Xrotation
			JOINT LeftLeg
			{
				OFFSET 2.448110 -6.726130 0.000000
				CHANNELS 3 Zrotation Yrotation Xrotation
				JOINT LeftFoot
				{
					OFFSET 2.562200 -7.039590 0.000000
					CHANNELS 3 Zrotation Yrotation Xrotation
					JOINT LeftToeBase
					{
						OFFSET 0.157640 -0.433110 2.322550
						CHANNELS 3 Zrotation Yrotation Xrotation
						End Site
						{
							OFFSET 0.000000 0.000000 0.000000
						}
					}
				}
			}
		}
	}
	JOINT RHipJoint
	{
		OFFSET 0.000000 0.000000 0.000000
		CHANNELS 3 Zrotation Yrotation Xrotation
		JOINT RightUpLeg
		{
			OFFSET -1.305520 -1.794630 0.839290
			CHANNELS 3 Zrotation Yrotation Xrotation
			JOINT RightLeg
			{
				OFFSET -2.542530 -6.985550 0.000000
				CHANNELS 3 Zrotation Yrotation Xrotation
				JOINT RightFoot
				{
					OFFSET -2.568260 -7.056230 0.000000
					CHANNELS 3 Zrotation Yrotation Xrotation
					JOINT RightToeBase
					{
						OFFSET -0.164730 -0.452590 2.363150
						CHANNELS 3 Zrotation Yrotation Xrotation
						End Site
						{
							OFFSET 0.000000 0.000000 0.000000
						}
					}
				}
			}
		}
	}
}
MOTION
Frames: 33
Frame Time: 0.008333
2.441875 15.463248 0.046682 1.801879 85.040575 41.657287 -10.629812 -1.572133 -1.696520 -14.514118 -3.352950 -74.943367 2.110880 6.509823 86.871546 4.770821 21.270818 -26.551705 -6.305801 -0.000001 -4.249400 7.938871 1.355611 -2.624715 14.940562 -2.889161 -59.040074 2.093257 -4.477184 60.534101 -3.651786 -6.381720 -34.240554 3.935200 0.000000 -28.761500
2.627213 15.497683 0.055874 1.747968 85.026789 41.892082 -10.291797 -1.704365 -1.541024 -14.692318 -4.209400 -77.353581 1.939442 6.483171 85.323059 4.840799 20.996283 -26.520621 -6.166000 0.000001 -4.804300 7.962660 1.332749 -2.828642 14.784205 -3.085660 -57.741293 2.216247 -4.336675 59.297118 -3.685386 -6.451402 -34.386701 3.996400 0.000000 -29.415001
2.817154 15.528945 0.065157 1.371890 85.039203 41.782165 -9.943649 -1.796558 -1.366789 -14.797089 -5.044989 -79.602655 1.723536 6.428089 83.439934 4.887414 20.575715 -26.394922 -5.950200 -0.000001 -5.386600 8.005221 1.304578 -3.037304 14.648632 -3.312792 -56.384397 2.345495 -4.196091 58.011820 -3.710470 -6.490889 -34.518516 4.044900 -0.000000 -30.130000
3.012069 15.556702 0.074519 0.745963 85.081459 41.404438 -9.594402 -1.849102 -1.170567 -14.840141 -5.853569 -81.693563 1.464528 6.346681 81.233699 4.903255 19.976347 -26.177230 -5.655500 0.000000 -5.992300 8.063016 1.268228 -3.246939 14.532958 -3.571738 -54.981752 2.479690 -4.055580 56.683067 -3.724304 -6.495547 -34.616638 4.074900 0.000000 -30.914500
3.212338 15.580734 0.083875 -0.086625 85.157125 40.807492 -9.251998 -1.862272 -0.948902 -14.834286 -6.631880 -83.626425 1.163156 6.240238 78.712247 4.882165 19.176957 -25.870754 -5.285000 0.000000 -6.765200 8.133226 1.221449 -3.454369 14.436940 -3.862123 -53.545148 2.617491 -3.915357 55.316874 -3.725171 -6.464232 -34.665707 4.083100 0.000000 -31.753000
3.418161 15.600911 0.093094 -1.094086 85.268991 40.027104 -8.923219 -1.836515 -0.698488 -14.793519 -7.380275 -85.397175 0.817581 6.109359 75.881221 4.821343 18.167242 -25.515033 -4.860000 0.000000 -7.610800 8.213498 1.162872 -3.657400 14.358674 -4.183172 -52.084234 2.757149 -3.775640 53.919301 -3.712257 -6.400967 -34.650706 4.067900 0.000000 -32.669800
3.629695 15.617185 0.102055 -2.261062 85.418519 39.082399 -8.613946 -1.772971 -0.415796 -14.728848 -8.101881 -86.994200 0.425362 5.951942 72.737988 4.718248 16.947215 -25.131983 -4.398199 0.000000 -8.687799 8.301873 1.091926 -3.855074 14.295969 -4.532451 -50.604861 2.896884 -3.636415 52.496213 -3.686376 -6.314574 -34.564197 4.031100 -0.000000 -33.661300
3.847048 15.629606 0.110534 -3.596552 85.605183 37.965350 -8.328665 -1.674260 -0.097870 -14.646942 -8.800573 -88.396610 -0.016898 5.762754 69.274798 4.571953 15.527835 -24.745680 -3.919600 0.000000 -10.056700 8.397040 1.009186 -4.047855 14.244416 -4.906073 -49.107001 3.034686 -3.497413 51.052670 -3.649543 -6.217947 -34.404163 3.977199 -0.000000 -34.735500
4.070161 15.638133 0.118339 -5.114475 85.824398 36.659186 -8.070934 -1.545827 0.257114 -14.548134 -9.477975 -89.573942 -0.511667 5.532647 65.480488 4.382621 13.933682 -24.363936 -3.440000 0.000000 -11.843400 8.497707 0.916144 -4.238068 14.197573 -5.299739 -47.583660 3.168425 -3.358158 49.593318 -3.604439 -6.125028 -34.174338 3.912000 0.000000 -35.891700
4.298990 15.642775 0.125203 -6.843094 86.067159 35.128832 -7.843004 -1.397213 0.649579 -14.422625 -10.132285 -90.489472 -1.057746 5.248081 61.347752 4.153401 12.210389 -23.980414 -2.972900 -0.000000 -14.091100 8.602437 0.815363 -4.430002 14.146769 -5.710082 -46.020778 3.296186 -3.217992 48.122872 -3.554042 -6.047539 -33.886241 3.842000 0.000000 -37.103700
4.533478 15.643258 0.130876 -8.946069 86.321342 33.200168 -7.644282 -1.244179 1.075906 -14.250624 -10.745175 -91.112350 -1.646627 4.893544 56.887829 3.887530 10.417341 -23.556493 -2.524400 -0.000000 -16.872000 8.711153 0.707935 -4.624690 14.086829 -6.118364 -44.397624 3.414460 -3.075365 46.642527 -3.502422 -6.004341 -33.547093 3.775100 -0.000000 -38.427801
4.773472 15.639370 0.135090 -11.406190 86.565420 30.873212 -7.476004 -1.106612 1.529000 -14.004759 -11.300470 -91.407895 -2.259356 4.452418 52.138502 3.599142 8.654253 -23.074876 -2.111100 -0.000000 -19.863900 8.819430 0.597292 -4.828355 14.004489 -6.525900 -42.689335 3.521653 -2.929484 45.159721 -3.450898 -5.993297 -33.177591 3.714000 -0.000000 -39.785700
5.018757 15.630684 0.137597 -14.296240 86.775416 28.055299 -7.337196 -1.008007 1.995300 -13.647247 -11.768163 -91.363940 -2.861274 3.915074 47.189119 3.305986 7.036572 -22.501452 -1.744101 -0.000000 -22.745700 8.923509 0.485130 -5.042102 13.892466 -6.921949 -40.870456 3.614822 -2.778914 43.680441 -3.400828 -6.014659 -32.790304 3.661200 0.000000 -41.171700
5.269374 15.616460 0.138335 -17.781234 86.923818 24.569061 -7.227286 -0.969981 2.455538 -13.141226 -12.105820 -91.012442 -3.405694 3.290935 42.200423 3.026865 5.670882 -21.808018 -1.430001 0.000000 -25.146700 9.019063 0.369070 -5.255293 13.754931 -7.270893 -38.928265 3.689013 -2.621258 42.209568 -3.355894 -6.079531 -32.391632 3.621399 0.000000 -42.606900
5.524989 15.596206 0.137283 -21.668810 86.985108 20.589408 -7.148458 -1.001366 2.886651 -12.456625 -12.293891 -90.396898 -3.836762 2.610920 37.384145 2.786578 4.674123 -20.968603 -1.171100 -0.000001 -26.913601 9.101564 0.252052 -5.463285 13.588381 -7.569779 -36.854593 3.741963 -2.456095 40.760585 -3.314424 -6.171883 -31.988418 3.590700 0.000000 -44.044501
5.785440 15.569379 0.134705 -25.830095 86.942489 16.243664 -7.102692 -1.095199 3.266782 -11.591942 -12.318904 -89.616222 -4.111542 1.936348 33.010018 2.600477 4.101182 -19.968380 -0.957900 -0.000000 -28.076300 9.170744 0.133176 -5.648900 13.404298 -7.790538 -34.666904 3.769943 -2.283463 39.346779 -3.277419 -6.292710 -31.574806 3.568500 0.000000 -45.494400
6.050463 15.535584 0.131096 -29.995609 86.794878 11.811621 -7.091375 -1.228244 3.581364 -10.582789 -12.194665 -88.793473 -4.214602 1.342964 29.353316 2.474736 3.948397 -18.806410 -0.772100 0.000000 -28.818200 9.230209 0.012214 -5.794808 13.213099 -7.914282 -32.403609 3.770832 -2.106139 37.988654 -3.244233 -6.439019 -31.138981 3.551400 -0.000000 -46.959800
6.319678 15.494813 0.127101 -33.875110 86.557142 7.602587 -7.113532 -1.370188 3.824782 -9.500649 -11.954594 -88.058625 -4.162608 0.900866 26.654795 2.403959 4.150802 -17.494921 -0.589900 -0.000000 -29.333600 9.285733 -0.111769 -5.886566 13.022823 -7.933914 -30.119332 3.744384 -1.929610 36.712288 -3.212584 -6.605549 -30.661550 3.533100 0.000000 -48.464400
6.592596 15.447358 0.123406 -37.240399 86.253732 3.867709 -7.166317 -1.494031 3.998195 -8.441627 -11.635432 -87.525973 -3.994331 0.657009 25.079162 2.371093 4.596993 -16.040658 -0.386800 -0.000000 -29.801500 9.342606 -0.240697 -5.914581 12.836094 -7.854865 -27.876726 3.691836 -1.761432 35.551579 -3.178782 -6.784620 -30.118959 3.505500 -0.000001 -50.034300
6.868553 15.393832 0.120627 -39.985275 85.908757 0.730207 -7.245558 -1.583482 4.103038 -7.506769 -11.258542 -87.275220 -3.752747 0.630145 24.701347 2.350927 5.152043 -14.439983 -0.144500 0.000000 -30.325600 9.404387 -0.377039 -5.875791 12.652134 -7.695095 -25.731200 3.615370 -1.609626 34.543723 -3.138023 -6.966207 -29.484092 3.459000 0.000000 -51.698200
7.146771 15.335113 0.119219 -42.124990 85.537127 -1.819786 -7.346006 -1.635126 4.136375 -6.782833 -10.819564 -87.338658 -3.471179 0.814365 25.506473 2.315156 5.679463 -12.683594 0.141901 -0.000000 -30.902500 9.473309 -0.523349 -5.773270 12.470419 -7.481166 -23.721277 3.517329 -1.481560 33.725647 -3.085478 -7.141199 -28.728168 3.383901 -0.000000 -53.476700
7.426311 15.272247 0.119436 -43.761111 85.142364 -3.888601 -7.460760 -1.656692 4.092329 -6.322285 -10.292062 -87.697483 -3.167799 1.182770 27.390319 2.240229 6.065072 -10.776558 0.458000 0.000000 -31.396600 9.550972 -0.681892 -5.615163 12.293646 -7.242555 -21.865717 3.399629 -1.383239 33.129999 -3.017409 -7.304457 -27.823259 3.272400 0.000000 -55.373100
7.706130 15.206490 0.121333 -45.009153 84.720601 -5.601511 -7.580545 -1.662256 3.968027 -6.132198 -9.644769 -88.287376 -2.848215 1.689882 30.164028 2.115456 6.238604 -8.760651 0.770600 0.000000 -31.558600 9.638682 -0.853237 -5.414203 12.125397 -7.008806 -20.171007 3.263233 -1.319443 32.785037 -2.932238 -7.457981 -26.745442 3.120100 -0.000000 -57.365400
7.985110 15.139261 0.124900 -45.956949 84.269421 -7.052738 -7.694641 -1.665896 3.769821 -6.180104 -8.860795 -89.016007 -2.514265 2.277060 33.573357 1.946467 6.180972 -6.727770 1.037101 0.000000 -31.126800 9.737214 -1.035516 -5.186577 11.966625 -6.806950 -18.640864 3.107986 -1.293618 32.713975 -2.831036 -7.611169 -25.478378 2.925700 -0.000000 -59.401000
8.262060 15.072141 0.129982 -46.649430 83.795208 -8.284621 -7.793743 -1.676049 3.514997 -6.414276 -7.950390 -89.788500 -2.172257 2.884335 37.339785 1.751935 5.917821 -4.812291 1.220700 -0.000000 -29.981900 9.846591 -1.224433 -4.950531 11.812795 -6.662996 -17.286429 2.933104 -1.307957 32.937941 -2.717554 -7.778193 -24.019561 2.691500 -0.000000 -61.387800
8.536051 15.006740 0.136752 -47.063913 83.313991 -9.259408 -7.873226 -1.692622 3.229431 -6.778723 -6.952965 -90.534821 -1.833260 3.464830 41.216441 1.556088 5.509062 -3.158429 1.306100 0.000000 -28.263500 9.965549 -1.413218 -4.720280 11.653045 -6.589251 -16.132042 2.736012 -1.362109 33.475614 -2.598877 -7.981099 -22.380942 2.423300 0.000000 -63.207100
8.805807 14.944721 0.144772 -47.231514 82.849315 -9.994959 -7.932604 -1.711510 2.934903 -7.231285 -5.921348 -91.197768 -1.511048 3.989710 45.010576 1.379316 5.024385 -1.903090 1.298800 -0.000000 -26.272400 10.092554 -1.595065 -4.511277 11.477445 -6.603381 -15.198927 2.516098 -1.454099 34.339174 -2.483096 -8.236511 -20.595859 2.128200 0.000000 -64.691500
9.070441 14.887451 0.153796 -47.144127 82.425158 -10.465356 -7.975354 -1.726158 2.649990 -7.735301 -4.915682 -91.747956 -1.215115 4.448206 48.604499 1.236247 4.540169 -1.142372 1.222501 0.000000 -24.363700 10.225306 -1.762090 -4.331492 11.275856 -6.705461 -14.511459 2.272736 -1.578821 35.534878 -2.379932 -8.561890 -18.716482 1.815700 0.000000 -65.661900
9.329396 14.835943 0.163684 -46.787239 82.059790 -10.638382 -8.006828 -1.730698 2.387560 -8.262747 -3.989265 -92.173952 -0.951059 4.841218 51.940034 1.134596 4.121033 -0.937669 1.105501 0.000000 -22.729300 10.360874 -1.906718 -4.182469 11.043582 -6.881557 -14.091249 2.006850 -1.728835 37.061274 -2.299008 -8.971588 -16.810002 1.496100 0.000000 -65.957700
9.581909 14.790984 0.173780 -46.187388 81.766133 -10.532984 -8.031648 -1.724545 2.152328 -8.785234 -3.183978 -92.457842 -0.719166 5.172256 54.990559 1.078103 3.820859 -1.293690 0.973000 0.000000 -21.521900 10.496323 -2.022674 -4.066399 10.782453 -7.117552 -13.939261 1.723500 -1.896268 38.902562 -2.247602 -9.468213 -14.961522 1.180801 -0.000000 -65.428299
9.827687 14.752843 0.183744 -45.353646 81.547827 -10.150762 -8.054110 -1.708796 1.947196 -9.277011 -2.528341 -92.591465 -0.517898 5.446246 57.751033 1.068284 3.675672 -2.174030 0.839200 0.000000 -20.766300 10.628305 -2.105219 -3.980695 10.500435 -7.388234 -14.052245 1.429661 -2.073371 41.034798 -2.230134 -10.047917 -13.259608 0.882300 0.000000 -64.006400
10.066484 14.721554 0.193116 -44.317466 81.400696 -9.519739 -8.077289 -1.687157 1.772954 -9.711609 -2.036990 -92.567656 -0.344130 5.666744 60.224182 1.105734 3.705970 -3.501911 0.706500 -0.000000 -20.433500 10.753839 -2.152403 -3.922280 10.211973 -7.668849 -14.416416 1.134330 -2.254218 43.423619 -2.247149 -10.697973 -11.789886 0.614300 0.000000 -61.711400
10.298269 14.696786 0.201587 -43.121312 81.314733 -8.680962 -8.103189 -1.664244 1.629442 -10.065232 -1.712064 -92.385422 -0.193784 5.836568 62.416905 1.189766 3.917640 -5.166697 0.568101 0.000000 -20.484700 10.870691 -2.164919 -3.887527 9.935112 -7.936599 -15.013339 0.846495 -2.435340 46.027566 -2.295240 -11.397269 -10.623941 0.391500 0.000000 -58.662900
